<mxfile host="app.diagrams.net" agent="Mozilla/5.0 (Macintosh; Intel Mac OS X 10_15_7) AppleWebKit/537.36 (KHTML, like Gecko) Chrome/140.0.0.0 Safari/537.36" version="27.2.0">
  <diagram name="Page-1" id="8o1lnKBPmrf1T5YJBFrn">
    <mxGraphModel dx="1844" dy="824" grid="1" gridSize="10" guides="1" tooltips="1" connect="1" arrows="1" fold="1" page="1" pageScale="1" pageWidth="827" pageHeight="1169" math="0" shadow="0">
      <root>
        <mxCell id="0" />
        <mxCell id="1" parent="0" />
        <mxCell id="tT3r_Gl0ywesqnOa3iY--26" value="" style="group" vertex="1" connectable="0" parent="1">
          <mxGeometry x="30" y="400" width="190" height="210" as="geometry" />
        </mxCell>
        <mxCell id="tT3r_Gl0ywesqnOa3iY--6" value="/upload" style="swimlane;whiteSpace=wrap;html=1;" vertex="1" parent="tT3r_Gl0ywesqnOa3iY--26">
          <mxGeometry width="170" height="50" as="geometry" />
        </mxCell>
        <mxCell id="tT3r_Gl0ywesqnOa3iY--8" value="Upload new product" style="text;html=1;align=center;verticalAlign=middle;resizable=0;points=[];autosize=1;strokeColor=none;fillColor=none;" vertex="1" parent="tT3r_Gl0ywesqnOa3iY--26">
          <mxGeometry x="30" y="20" width="120" height="30" as="geometry" />
        </mxCell>
        <mxCell id="tT3r_Gl0ywesqnOa3iY--9" value="/edit" style="swimlane;whiteSpace=wrap;html=1;" vertex="1" parent="1">
          <mxGeometry x="30" y="472" width="170" height="50" as="geometry" />
        </mxCell>
        <mxCell id="tT3r_Gl0ywesqnOa3iY--10" value="Edit existing product" style="text;html=1;align=center;verticalAlign=middle;resizable=0;points=[];autosize=1;strokeColor=none;fillColor=none;" vertex="1" parent="tT3r_Gl0ywesqnOa3iY--9">
          <mxGeometry x="20" y="20" width="130" height="30" as="geometry" />
        </mxCell>
        <mxCell id="tT3r_Gl0ywesqnOa3iY--11" value="/claim" style="swimlane;whiteSpace=wrap;html=1;" vertex="1" parent="1">
          <mxGeometry x="30" y="542" width="170" height="50" as="geometry" />
        </mxCell>
        <mxCell id="tT3r_Gl0ywesqnOa3iY--12" value="Claim a product as &quot;user&quot;" style="text;html=1;align=center;verticalAlign=middle;resizable=0;points=[];autosize=1;strokeColor=none;fillColor=none;" vertex="1" parent="tT3r_Gl0ywesqnOa3iY--11">
          <mxGeometry x="10" y="20" width="150" height="30" as="geometry" />
        </mxCell>
        <mxCell id="tT3r_Gl0ywesqnOa3iY--25" value="" style="group" vertex="1" connectable="0" parent="1">
          <mxGeometry x="40" y="30" width="137.5" height="130" as="geometry" />
        </mxCell>
        <mxCell id="tT3r_Gl0ywesqnOa3iY--2" value="" style="points=[[0.03,0.03,0],[0.5,0,0],[0.97,0.03,0],[1,0.4,0],[0.97,0.745,0],[0.5,1,0],[0.03,0.745,0],[0,0.4,0]];verticalLabelPosition=bottom;sketch=0;html=1;verticalAlign=top;aspect=fixed;align=center;pointerEvents=1;shape=mxgraph.cisco19.workstation;fillColor=#005073;strokeColor=none;" vertex="1" parent="tT3r_Gl0ywesqnOa3iY--25">
          <mxGeometry y="20" width="137.5" height="110" as="geometry" />
        </mxCell>
        <mxCell id="tT3r_Gl0ywesqnOa3iY--15" value="Frontend" style="text;html=1;align=center;verticalAlign=middle;resizable=0;points=[];autosize=1;strokeColor=none;fillColor=none;" vertex="1" parent="tT3r_Gl0ywesqnOa3iY--25">
          <mxGeometry x="33.75" width="70" height="30" as="geometry" />
        </mxCell>
        <mxCell id="tT3r_Gl0ywesqnOa3iY--38" style="edgeStyle=orthogonalEdgeStyle;rounded=0;orthogonalLoop=1;jettySize=auto;html=1;exitX=1;exitY=0.5;exitDx=0;exitDy=0;entryX=0;entryY=0.5;entryDx=0;entryDy=0;" edge="1" parent="1" source="tT3r_Gl0ywesqnOa3iY--14" target="tT3r_Gl0ywesqnOa3iY--18">
          <mxGeometry relative="1" as="geometry" />
        </mxCell>
        <mxCell id="tT3r_Gl0ywesqnOa3iY--39" value="read&lt;br&gt;write" style="edgeLabel;html=1;align=center;verticalAlign=middle;resizable=0;points=[];" vertex="1" connectable="0" parent="tT3r_Gl0ywesqnOa3iY--38">
          <mxGeometry x="0.0711" y="1" relative="1" as="geometry">
            <mxPoint as="offset" />
          </mxGeometry>
        </mxCell>
        <mxCell id="tT3r_Gl0ywesqnOa3iY--14" value="API" style="shape=image;editableCssRules=.*;verticalLabelPosition=bottom;labelBackgroundColor=default;verticalAlign=top;aspect=fixed;imageAspect=0;image=data:image/svg+xml,PHN2ZyB4bWxucz0iaHR0cDovL3d3dy53My5vcmcvMjAwMC9zdmciIHZpZXdCb3g9Ii0wLjUgLTAuNSAyOCAyNy44MzYiIGhlaWdodD0iMjcuODM2IiB3aWR0aD0iMjgiPiYjeGE7CSAgPHN0eWxlIHR5cGU9InRleHQvY3NzIj4uc3QwIHsgc3RvcC1jb2xvcjogcmdiKDkxLCAxMTUsIDEzOSk7IH0gLnN0MSB7IHN0b3AtY29sb3I6IHJnYigzNCwgNTMsIDcyKTsgfSA8L3N0eWxlPiYjeGE7CTxkZWZzPiYjeGE7CQk8bGluZWFyR3JhZGllbnQgZ3JhZGllbnRVbml0cz0idXNlclNwYWNlT25Vc2UiIHkyPSIyNS4yODMiIHgyPSIyMy4zMjYiIHkxPSIzLjQ1MSIgeDE9IjIuMDM5IiBpZD0iQSI+JiN4YTsJCQk8c3RvcCBjbGFzcz0ic3QwIi8+JiN4YTsJCQk8c3RvcCBjbGFzcz0ic3QxIiBvZmZzZXQ9IjEiLz4mI3hhOwkJPC9saW5lYXJHcmFkaWVudD4mI3hhOwk8L2RlZnM+JiN4YTsJPHBhdGggZmlsbD0idXJsKCNBKSIgZD0iTTIxLjkxMSAxNi4yMTJjLjc2NyAwIDEuNDc5LjE0NiAyLjEzNy40MzhhNS42IDUuNiAwIDAgMSAzLjAxNCAzLjAxNCA1LjIgNS4yIDAgMCAxIC40MzggMi4xMzcgNS41OSA1LjU5IDAgMCAxLS40MzggMi4xOTJjLS4yOTIuNjU3LS42OTQgMS4yMjQtMS4yMDYgMS42OTgtLjUxMi41MTItMS4xMTQuOTEzLTEuODA4IDEuMjA2LS42NTguMjkyLTEuMzcuNDM4LTIuMTM3LjQzOHMtMS40OTgtLjE0Ni0yLjE5Mi0uNDM4YTUuNzggNS43OCAwIDAgMS0xLjc1My0xLjIwNmMtLjUxMi0uNDc1LS45MTMtMS4wNDEtMS4yMDYtMS42OThhNS41OSA1LjU5IDAgMCAxLS40MzgtMi4xOTJ2LS43MTJsLTcuMzk3LTMuNjE2Yy0xLjEzMiAxLjAyMy0yLjQyOSAxLjUzNC0zLjg5IDEuNTM0YTUuNTkgNS41OSAwIDAgMS0yLjE5Mi0uNDM4IDUuNzggNS43OCAwIDAgMS0xLjc1My0xLjIwNmMtLjQ3NS0uNTExLS44NTgtMS4wOTYtMS4xNTEtMS43NTNBNS41OSA1LjU5IDAgMCAxLS41IDEzLjQxOGMwLS43NjcuMTQ2LTEuNDc5LjQzOC0yLjEzNy4yOTItLjY5NC42NzYtMS4yNzkgMS4xNTEtMS43NTNhNS43OCA1Ljc4IDAgMCAxIDEuNzUzLTEuMjA2IDUuNTkgNS41OSAwIDAgMSAyLjE5Mi0uNDM4Yy43NjcgMCAxLjQ3OS4xMjggMi4xMzcuMzg0YTQuNDUgNC40NSAwIDAgMSAxLjc1MyAxLjE1MWw3LjM5Ny0zLjY3MXYtLjY1OGMwLS43NjcuMTQ2LTEuNDc5LjQzOC0yLjEzN2E1LjYgNS42IDAgMCAxIDEuMjA2LTEuODA4IDUuNzggNS43OCAwIDAgMSAxLjc1My0xLjIwNUE1LjU5IDUuNTkgMCAwIDEgMjEuOTExLS41Yy43NjcgMCAxLjQ3OS4xNDYgMi4xMzcuNDM4YTUuNiA1LjYgMCAwIDEgMS44MDggMS4yMDUgNS42IDUuNiAwIDAgMSAxLjIwNiAxLjgwOCA1LjIgNS4yIDAgMCAxIC40MzggMi4xMzcgNS41OSA1LjU5IDAgMCAxLS40MzggMi4xOTIgNS43OCA1Ljc4IDAgMCAxLTEuMjA2IDEuNzUzYy0uNTEyLjQ3NS0xLjExNC44NTgtMS44MDggMS4xNTEtLjY1OC4yOTItMS4zNy40MzgtMi4xMzcuNDM4LS45ODYgMC0xLjg4MS0uMjAxLTIuNjg1LS42MDMtLjc2Ny0uNDM4LTEuNDA2LTEuMDIzLTEuOTE4LTEuNzUzbC02Ljg0OSAzLjUwN2MuMTgzLjYyMS4yNzQgMS4xNjkuMjc0IDEuNjQ0IDAgLjUxMS0uMDkxIDEuMDc4LS4yNzQgMS42OTlsNi44NDkgMy40NTJhNi43NyA2Ljc3IDAgMCAxIDEuOTczLTEuNjk5Yy43NjctLjQzOCAxLjY0NC0uNjU3IDIuNjMtLjY1N3ptMC0xMy45MThhMi42OSAyLjY5IDAgMCAwLTEuOTczLjgyMiAyLjY5IDIuNjkgMCAwIDAtLjgyMiAxLjk3MyAyLjY5IDIuNjkgMCAwIDAgLjgyMiAxLjk3MyAyLjY5IDIuNjkgMCAwIDAgMS45NzMuODIyIDIuNjkgMi42OSAwIDAgMCAxLjk3My0uODIyIDIuNjkgMi42OSAwIDAgMCAuODIyLTEuOTczIDIuNjkgMi42OSAwIDAgMC0uODIyLTEuOTczIDIuNjkgMi42OSAwIDAgMC0xLjk3My0uODIyek01LjE5OSAxNi4yMTJhMi42OSAyLjY5IDAgMCAwIDEuOTczLS44MjIgMi42OSAyLjY5IDAgMCAwIC44MjItMS45NzMgMi42OSAyLjY5IDAgMCAwLS44MjItMS45NzMgMi42OSAyLjY5IDAgMCAwLTEuOTczLS44MjIgMi42OSAyLjY5IDAgMCAwLTEuOTczLjgyMiAyLjY5IDIuNjkgMCAwIDAtLjgyMiAxLjk3MyAyLjY5IDIuNjkgMCAwIDAgLjgyMiAxLjk3MyAyLjY5IDIuNjkgMCAwIDAgMS45NzMuODIyem0xNi43MTIgOC4zODNhMi42OSAyLjY5IDAgMCAwIDEuOTczLS44MjIgMi42OSAyLjY5IDAgMCAwIC44MjItMS45NzMgMi42OSAyLjY5IDAgMCAwLS44MjItMS45NzMgMi42OSAyLjY5IDAgMCAwLTEuOTczLS44MjIgMi42OSAyLjY5IDAgMCAwLTEuOTczLjgyMiAyLjY5IDIuNjkgMCAwIDAtLjgyMiAxLjk3MyAyLjY5IDIuNjkgMCAwIDAgLjgyMiAxLjk3MyAyLjY5IDIuNjkgMCAwIDAgMS45NzMuODIyeiIvPiYjeGE7PC9zdmc+;" vertex="1" parent="1">
          <mxGeometry x="88.75" y="280" width="40" height="40" as="geometry" />
        </mxCell>
        <mxCell id="tT3r_Gl0ywesqnOa3iY--36" value="GET&lt;br&gt;POST&lt;br&gt;UPDATE" style="endArrow=classic;html=1;rounded=0;exitX=0.5;exitY=1;exitDx=0;exitDy=0;exitPerimeter=0;entryX=0.5;entryY=0;entryDx=0;entryDy=0;" edge="1" parent="1" source="tT3r_Gl0ywesqnOa3iY--2" target="tT3r_Gl0ywesqnOa3iY--14">
          <mxGeometry width="50" height="50" relative="1" as="geometry">
            <mxPoint x="388.75" y="270" as="sourcePoint" />
            <mxPoint x="534.75" y="410" as="targetPoint" />
          </mxGeometry>
        </mxCell>
        <mxCell id="tT3r_Gl0ywesqnOa3iY--48" value="" style="endArrow=classic;html=1;rounded=0;exitX=1;exitY=0.4;exitDx=0;exitDy=0;exitPerimeter=0;entryX=0;entryY=0.5;entryDx=0;entryDy=0;entryPerimeter=0;" edge="1" parent="1" source="tT3r_Gl0ywesqnOa3iY--2" target="tT3r_Gl0ywesqnOa3iY--45">
          <mxGeometry width="50" height="50" relative="1" as="geometry">
            <mxPoint x="550" y="410" as="sourcePoint" />
            <mxPoint x="600" y="360" as="targetPoint" />
            <Array as="points" />
          </mxGeometry>
        </mxCell>
        <mxCell id="tT3r_Gl0ywesqnOa3iY--51" value="read / write" style="edgeLabel;html=1;align=center;verticalAlign=middle;resizable=0;points=[];" vertex="1" connectable="0" parent="tT3r_Gl0ywesqnOa3iY--48">
          <mxGeometry x="0.0566" y="3" relative="1" as="geometry">
            <mxPoint as="offset" />
          </mxGeometry>
        </mxCell>
        <mxCell id="tT3r_Gl0ywesqnOa3iY--53" value="" style="group" vertex="1" connectable="0" parent="1">
          <mxGeometry x="320" y="30" width="70" height="105" as="geometry" />
        </mxCell>
        <mxCell id="tT3r_Gl0ywesqnOa3iY--45" value="SQL" style="shape=cylinder3;whiteSpace=wrap;html=1;boundedLbl=1;backgroundOutline=1;size=15;" vertex="1" parent="tT3r_Gl0ywesqnOa3iY--53">
          <mxGeometry y="25" width="70" height="80" as="geometry" />
        </mxCell>
        <mxCell id="tT3r_Gl0ywesqnOa3iY--52" value="AUTH" style="text;html=1;align=center;verticalAlign=middle;whiteSpace=wrap;rounded=0;" vertex="1" parent="tT3r_Gl0ywesqnOa3iY--53">
          <mxGeometry x="5" width="60" height="30" as="geometry" />
        </mxCell>
        <mxCell id="tT3r_Gl0ywesqnOa3iY--57" value="" style="group" vertex="1" connectable="0" parent="1">
          <mxGeometry x="308.75" y="230" width="170" height="120" as="geometry" />
        </mxCell>
        <mxCell id="tT3r_Gl0ywesqnOa3iY--24" value="" style="group" vertex="1" connectable="0" parent="tT3r_Gl0ywesqnOa3iY--57">
          <mxGeometry y="20" width="170" height="100" as="geometry" />
        </mxCell>
        <mxCell id="tT3r_Gl0ywesqnOa3iY--18" value="" style="rounded=1;whiteSpace=wrap;html=1;" vertex="1" parent="tT3r_Gl0ywesqnOa3iY--24">
          <mxGeometry width="170" height="100" as="geometry" />
        </mxCell>
        <mxCell id="tT3r_Gl0ywesqnOa3iY--16" value="SQL" style="shape=cylinder3;whiteSpace=wrap;html=1;boundedLbl=1;backgroundOutline=1;size=15;" vertex="1" parent="tT3r_Gl0ywesqnOa3iY--24">
          <mxGeometry x="10" y="10" width="70" height="80" as="geometry" />
        </mxCell>
        <mxCell id="tT3r_Gl0ywesqnOa3iY--17" value="Images" style="verticalLabelPosition=bottom;html=1;verticalAlign=top;align=center;strokeColor=none;fillColor=#00BEF2;shape=mxgraph.azure.cloud_services_configuration_file;pointerEvents=1;" vertex="1" parent="tT3r_Gl0ywesqnOa3iY--24">
          <mxGeometry x="110" y="20" width="46.25" height="50" as="geometry" />
        </mxCell>
        <mxCell id="tT3r_Gl0ywesqnOa3iY--54" value="Supplies" style="text;html=1;align=center;verticalAlign=middle;whiteSpace=wrap;rounded=0;" vertex="1" parent="tT3r_Gl0ywesqnOa3iY--57">
          <mxGeometry x="55" width="60" height="30" as="geometry" />
        </mxCell>
      </root>
    </mxGraphModel>
  </diagram>
</mxfile>
